<svg xmlns="http://www.w3.org/2000/svg" xmlns:xlink="http://www.w3.org/1999/xlink" xmlns:lucid="lucid" width="998.63" height="622.6"><g transform="translate(-200 -200)" lucid:page-tab-id="0_0"><path d="M0 0h1360v1760H0z" fill="#fff"/><path d="M875 502.36c0 31.8-25.76 57.63-57.5 57.63S760 534.16 760 502.35c0-31.8 25.76-57.63 57.5-57.63s57.5 25.82 57.5 57.63z" fill="#9d5025"/><path d="M760 497.62h115v4.73H760v-4.73z" fill="#9d5025"/><path d="M875 497.63c0 31.8-25.76 57.63-57.5 57.63S760 529.44 760 497.63c0-31.8 25.76-57.63 57.5-57.63s57.5 25.82 57.5 57.63z" fill="#f58536"/><path d="M854.9 525.96l-4.48-11.8-9.97 3.84-14.23-37.42-3.97-10.33-1.88-4.9-2.9-7.65h-18.92v12.55h10.26l3.63 9.34-29.76 53.02h14.37l21.16-37.8 15.03 39.4 3.6-1.37 8.1-3.06 9.97-3.84z" fill="#fff"/><use xlink:href="#a" transform="matrix(1,0,0,1,760,560) translate(22.599999999999994 14.4)"/><use xlink:href="#b" transform="matrix(1,0,0,1,760,560) translate(25.025 36)"/><use xlink:href="#c" transform="matrix(1,0,0,1,760,560) translate(26.025 57.6)"/><path d="M487.98 240.82l-7.98 4V315l7.98 3.98 19.54-39.1-19.54-39.08z" fill="#8c3123"/><path d="M529.48 308.9L487.96 319V240.8l41.52 10.08 19.63 29.08-19.62 28.92z" fill="#e05243"/><path d="M529.5 308.9l41.53 10.1 7.16-38.08-7.17-40.1-41.53 10.08v58z" fill="#8c3123"/><path d="M571 240.82l8 4V315l-8 3.98v-78.18z" fill="#e05243"/><path d="M511.38 292.84l18.12 2.33 14.35-15.14-14.35-15.14-18.12 2.26v25.68z" fill="#8c3123"/><path d="M547.6 254.74l-18.1 3.3-18.12-3.3 18.1-34.74 18.12 34.74z" fill="#5e1f18"/><path d="M547.6 305.25l-18.1-3.35-18.12 3.35 18.1 34.74 18.12-34.75z" fill="#f2b0a9"/><path d="M547.6 254.75l-18.1-4.48V220l18.1 9.07v25.68z" fill="#e05243"/><path d="M511.38 254.75l18.1-4.48V220l-18.1 9.07v25.68z" fill="#8c3123"/><path d="M529.5 340l18.1-9.08v-25.68l-18.1 4.48V340z" fill="#e05243"/><path d="M529.5 340l-18.12-9.08v-25.68l18.1 4.48V340z" fill="#8c3123"/><path d="M547.6 292.84l-18.1 2.33V264.9l18.1 2.26v25.68z" fill="#e05243"/><use xlink:href="#d" transform="matrix(1,0,0,1,480,340) translate(3.0249999999999986 14.4)"/><use xlink:href="#e" transform="matrix(1,0,0,1,480,340) translate(73.975 14.4)"/><path d="M364.08 719.2l19.7-2.32V683.1l-19.7-2.3v38.4z" fill="#5294cf"/><path d="M455.04 683.32l-9.12 3.66-51.26-8.03 14.8-38.95 45.58 43.32z" fill="#19486f"/><path d="M364.95 683.44l44.53-25.1L424.4 679l-40.66 6.34-18.8-1.88z" fill="#19486f"/><path d="M409.5 676l-49.5 9.94v-21.1L409.5 640l24.05 27.7-24.05 8.3z" fill="#205b99"/><path d="M369.9 664.7l-9.9 4.38v66.06l9.9 4.98v-75.4z" fill="#205b99"/><path d="M459 664.85L409.47 640v36l49.5 9.94v-21.1z" fill="#5294cf"/><path d="M361.62 716.87L409.46 760l14.94-39-40.62-6.35-22.16 2.22z" fill="#99bce3"/><path d="M455.65 716.72l-9.2-3.8-51.8 8.08 14.83 37.85 46.17-42.13z" fill="#99bce3"/><path d="M455.04 716.64l-19.74-2v-29.3l19.74-2v33.3zM409.48 724l21.4-24-21.4-24-26.35 24 26.35 24z" fill="#205b99"/><path d="M435.82 700l-26.34 24v-48l26.34 24z" fill="#5294cf"/><path d="M360 714.05l49.5 9.92 27.15 11.8L409.5 760 360 735.13v-21.1z" fill="#205b99"/><path d="M459 735.14L409.47 760v-36.03l49.5-9.92v21.1z" fill="#5294cf"/><path d="M449.05 740.12l9.94-4.98v-70.32l-9.95-4.97v80.27z" fill="#5294cf"/><use xlink:href="#f" transform="matrix(1,0,0,1,360,760) translate(16.525 14.4)"/><use xlink:href="#g" transform="matrix(1,0,0,1,360,760) translate(2.0749999999999957 36)"/><path d="M970.42 518.76H1080v18.73H970.4zm0-21.52H1080v17H970.4zm109.57-9.02v3.33h-96.22v-3.33l55.34-18.18zm-89.97-13.46v3.33c0-2.37-.44-4.6-1.32-6.74v-3.26c.9 2.08 1.33 4.37 1.33 6.66" fill="#876929"/><path d="M1008.95 477.44l-18.94.62c0-2.3-.46-4.57-1.33-6.7v-3.26c.4 1.02 17.46 4.32 17.46 4.32l2.82 5.02z" fill="#876929"/><path d="M1080 468.1v20.08h-96.22c5.92-5.02 7.9-12.88 4.93-20.08h91.3zM970.4 494.2H1080v16.7H970.4zm0 23.2H1080v16.77H970.4z" fill="#d9a741"/><path d="M1018.9 471.02v2.2h-4.9v3.2h4.66v2.26H1014v3.67h5.1v2.25h-7.87v-13.58zm1.5 3.35h2.53v1.05c.6-.92 1.58-1.4 2.67-1.33 1.1-.12 2.14.58 2.42 1.64.45-1.1 1.5-1.76 2.67-1.62 1.76 0 2.57 1.08 2.57 3.06v7.47h-2.67v-7.2c0-.84-.32-1.33-1.04-1.33-.77 0-1.34.58-1.34 1.76v6.7h-2.7v-7.12c0-.85-.28-1.34-1.05-1.34-.73 0-1.33.58-1.33 1.76v6.7h-2.67l-.08-10.2zm14.56 3.15v-.28c0-2.38 1.62-3.17 3.6-3.17 3.15 0 3.75 1.34 3.75 3.14v5.37c-.03.67.1 1.34.33 1.97h-2.58c-.16-.33-.24-.68-.32-1.06-.53 1-1.58 1.5-2.67 1.33-1.85 0-2.5-1.56-2.5-2.93 0-1.93.8-2.68 2.62-3.22l1.5-.4c.77-.2 1.05-.5 1.05-1.2v-.3c-.08-.6-.65-1.05-1.2-.96h-.26c-.64.17-1.05.8-.88 1.44v.28h-2.44zm4.85 2c-.35.24-.76.4-1.16.52-1.05.22-1.5.73-1.5 1.65 0 .9.3 1.43 1 1.43h.1c.88 0 1.57-.7 1.57-1.58v-2.04zm4.53-8.66h2.66v2.25h-2.67v-2.24zm0 3.5h2.66v10.28h-2.67v-10.27zm4.6-3.34h2.67v13.62h-2.67z" fill="#fff"/><path d="M984.7 478.17c0 6.82-5.52 12.36-12.34 12.36S960 485 960 478.17v-3.3l12.36-9.06 12.35 9.06v3.3z" fill="#8d090a"/><path d="M984.7 474.86c0 6.82-5.54 12.35-12.35 12.35-6.82 0-12.35-5.52-12.35-12.34s5.53-12.36 12.35-12.36c6.8 0 12.35 5.54 12.35 12.36z" fill="#ea2227"/><path d="M973.98 497.7h102.46v9.7H973.98zm0 23.26h102.46v9.68H973.98z" fill="#fff"/><use xlink:href="#h" transform="matrix(1,0,0,1,960,537.5) translate(38.574999999999996 14.4)"/><use xlink:href="#i" transform="matrix(1,0,0,1,960,537.5) translate(17.074999999999996 36)"/><path d="M321.18 509.72c11.06 0 18.8 6.98 18.8 16.92v21.58h-9.72v-14.64h-2.67v14.64H312.6c-1-10.94-9.84-18.38-22.24-18.38h-8.62v-5.97c9.5-.85 17.12-4.5 17.94-14.2h.87zM259.34 509.7h.93c.88 9.68 8.44 13.34 17.93 14.2v5.93h-8.44c-12.4 0-21.3 7.48-22.23 18.4h-14.67v-14.66h-2.68v14.65H220V526.6c0-10 7.74-16.94 18.86-16.94z" fill="#7d7c7c"/><path d="M290.3 538.93c11.06 0 18.8 6.98 18.8 16.93v21.63h-9.78v-14.7h-2.62v14.65h-33.07V562.8h-2.56v14.65h-10.2v-21.6c0-9.94 7.75-16.92 18.8-16.92zM249.06 467.56l16.32 11.6v5c.1 9.14-7.18 16.6-16.28 16.7h-.04c-8.94 0-16.32-7.47-16.32-17.42v-4.4zM310.86 467.56l16.32 11.6v5c.1 9.14-7.18 16.6-16.28 16.7h-.04c-8.94 0-16.32-7.47-16.32-17.42v-4.4zM280 490.34l14.4 10.2v4.5c.14 8.07-6.28 14.72-14.35 14.87H280c-8.17-.2-14.63-6.94-14.42-15.1 0-.12 0-.2.02-.33v-4.02z" fill="#7d7c7c"/><path d="M310.88 462.5c9.18-.17 16.76 7.16 16.93 16.35.17 9.2-7.14 16.78-16.32 16.94-9.18.16-16.76-7.17-16.92-16.35v-.34c-.07-9.08 7.2-16.53 16.32-16.6zM279.96 485.2c8.14-.2 14.9 6.25 15.1 14.4.18 8.15-6.25 14.9-14.4 15.12-8.13.18-14.9-6.26-15.1-14.4v-.36c-.08-8.07 6.35-14.65 14.4-14.77zM321.18 504.58c11.06 0 18.8 6.98 18.8 16.94v21.64h-9.72V528.5h-2.67v14.66H312.6c-1-10.96-9.84-18.36-22.24-18.36h-8.62v-1.9c9.73-.96 17.12-8.52 17.94-18.24h.87zM259.34 504.6h.93c.82 9.75 8.2 17.3 17.93 18.27v1.85h-8.44c-12.4 0-21.3 7.48-22.23 18.4h-14.67V528.5h-2.68v14.65H220v-21.63c0-10 7.74-16.93 18.86-16.93z" fill="#d2d3d3"/><path d="M290.3 533.87c11.06 0 18.8 6.98 18.8 16.93v21.63h-9.78v-14.65h-2.62v14.65h-33.07v-14.65h-2.56v14.65h-10.2V550.8c0-9.95 7.75-16.93 18.8-16.93zM249.07 462.5c9.18-.17 16.76 7.16 16.93 16.35.16 9.2-7.15 16.78-16.33 16.94-9.18.16-16.76-7.17-16.93-16.35v-.34c-.06-9.08 7.22-16.5 16.33-16.6z" fill="#d2d3d3"/><use xlink:href="#j" transform="matrix(1,0,0,1,220,577.5) translate(36.55 14.4)"/><path d="M340 530h70V290h51.76" stroke="#000" stroke-width="2" fill="none"/><path/><path d="M476.76 290l-14.26 4.64v-9.28z"/><path d="M480 290l-18.5 6v-12zm-16.5 3.26l10.03-3.26-10.03-3.26z"/><use xlink:href="#k" transform="matrix(1,0,0,1,281.144,390.1670894141715) translate(0 14.4)"/><use xlink:href="#l" transform="matrix(1,0,0,1,281.144,390.1670894141715) translate(54.95 14.4)"/><path d="M579 290h238.5v131.76" stroke="#000" stroke-width="2" fill="none"/><path d="M576.3 291h-.3v-2h.67zM817.5 436.76l-4.64-14.26h9.28z"/><path d="M817.5 440l-6-18.5h12zm-3.26-16.5l3.26 10.03 3.26-10.03z"/><use xlink:href="#m" transform="matrix(1,0,0,1,597.7,299.29505) translate(0 14.4)"/><use xlink:href="#n" transform="matrix(1,0,0,1,597.7,299.29505) translate(27 14.4)"/><use xlink:href="#o" transform="matrix(1,0,0,1,597.7,299.29505) translate(83.95 14.4)"/><use xlink:href="#p" transform="matrix(1,0,0,1,597.7,299.29505) translate(156.8 14.4)"/><path d="M1123.47 225.38l25.4 19.72v5.33c0 13.93-11.38 25.25-25.4 25.25-14 0-25.4-11.32-25.4-25.25v-5.33zM1137.94 282.7c16.1 0 29.06 9.67 29.06 25.43V340h-16.7v-22.36h-2.88V340h-47.32v-22.36h-2.87V340H1080v-31.87c0-15.76 12.96-25.44 29.06-25.44z" fill="#7d7c7c"/><path d="M1123.45 220c13.9.1 25.1 11.43 25 25.26-.1 13.83-11.5 24.95-25.4 24.85-13.8-.1-24.95-11.2-25-25 0-13.87 11.4-25.1 25.35-25.1h.05zM1137.94 277.36c16.1 0 29.06 9.68 29.06 25.44v31.86h-16.7v-22.4h-2.88v22.4h-47.32v-22.4h-2.87v22.4H1080V302.8c0-15.76 12.96-25.44 29.06-25.44z" fill="#d2d3d3"/><use xlink:href="#q" transform="matrix(1,0,0,1,1080,340) translate(-9.375000000000007 14.4)"/><path d="M610.77 711H477.23v-2h131.54v-88.2h2zm131.55-200H610.77v88.2h-2V509h133.55zM757.32 510l-14.27 4.64v-9.28z"/><path d="M760.55 510l-18.5 6v-12zm-16.5 3.26l10.03-3.26-10.03-3.26zM476.5 714.64L462.22 710l14.26-4.64z"/><path d="M477.5 716l-18.5-6 18.5-6zm-12.04-6l10.03 3.26v-6.52z"/><use xlink:href="#k" transform="matrix(1,0,0,1,479.3975290409479,599.2) translate(0 14.4)"/><use xlink:href="#r" transform="matrix(1,0,0,1,479.3975290409479,599.2) translate(54.95 14.4)"/><use xlink:href="#s" transform="matrix(1,0,0,1,479.3975290409479,599.2) translate(103.9 14.4)"/><use xlink:href="#t" transform="matrix(1,0,0,1,479.3975290409479,599.2) translate(160.85000000000002 14.4)"/><use xlink:href="#u" transform="matrix(1,0,0,1,479.3975290409479,599.2) translate(170.85000000000002 14.4)"/><use xlink:href="#v" transform="matrix(1,0,0,1,479.3975290409479,599.2) translate(208.8 14.4)"/><path d="M874.44 510h77.74" stroke="#000" stroke-width="2" fill="none"/><path d="M874.44 511h-.13l.14-1zM967.18 510l-14.27 4.64v-9.28z"/><path d="M970.42 510l-18.5 6v-12zm-16.5 3.26l10.02-3.26-10.03-3.26z"/><path d="M1080 510h43.5V378.24" stroke="#000" stroke-width="2" fill="none"/><path/><path d="M1128.14 377.5h-9.28l4.64-14.26z"/><path d="M1129.5 378.5h-12l6-18.5zm-9.26-2h6.52l-3.26-10.03z"/><defs><path d="M160-131c35 5 61 23 61 61C221 17 115-2 30 0v-248c76 3 177-17 177 60 0 33-19 50-47 57zm-97-11c50-1 110 9 110-42 0-47-63-36-110-37v79zm0 115c55-2 124 14 124-45 0-56-70-42-124-44v89" id="w"/><path d="M141-36C126-15 110 5 73 4 37 3 15-17 15-53c-1-64 63-63 125-63 3-35-9-54-41-54-24 1-41 7-42 31l-33-3c5-37 33-52 76-52 45 0 72 20 72 64v82c-1 20 7 32 28 27v20c-31 9-61-2-59-35zM48-53c0 20 12 33 32 33 41-3 63-29 60-74-43 2-92-5-92 41" id="x"/><path d="M24 0v-261h32V0H24" id="y"/><path d="M100-194c63 0 86 42 84 106H49c0 40 14 67 53 68 26 1 43-12 49-29l28 8c-11 28-37 45-77 45C44 4 14-33 15-96c1-61 26-98 85-98zm52 81c6-60-76-77-97-28-3 7-6 17-6 28h103" id="z"/><path d="M114-163C36-179 61-72 57 0H25l-1-190h30c1 12-1 29 2 39 6-27 23-49 58-41v29" id="A"/><path d="M24-231v-30h32v30H24zM24 0v-190h32V0H24" id="B"/><path d="M117-194c89-4 53 116 60 194h-32v-121c0-31-8-49-39-48C34-167 62-67 57 0H25l-1-190h30c1 10-1 24 2 32 11-22 29-35 61-36" id="C"/><g id="a"><use transform="matrix(0.05,0,0,0.05,0,0)" xlink:href="#w"/><use transform="matrix(0.05,0,0,0.05,12,0)" xlink:href="#x"/><use transform="matrix(0.05,0,0,0.05,22,0)" xlink:href="#y"/><use transform="matrix(0.05,0,0,0.05,25.950000000000003,0)" xlink:href="#y"/><use transform="matrix(0.05,0,0,0.05,29.899999999999995,0)" xlink:href="#z"/><use transform="matrix(0.05,0,0,0.05,39.9,0)" xlink:href="#A"/><use transform="matrix(0.05,0,0,0.05,45.85,0)" xlink:href="#B"/><use transform="matrix(0.05,0,0,0.05,49.800000000000004,0)" xlink:href="#C"/><use transform="matrix(0.05,0,0,0.05,59.800000000000004,0)" xlink:href="#x"/></g><path d="M30 0v-248h33v221h125V0H30" id="D"/><path d="M210-169c-67 3-38 105-44 169h-31v-121c0-29-5-50-35-48C34-165 62-65 56 0H25l-1-190h30c1 10-1 24 2 32 10-44 99-50 107 0 11-21 27-35 58-36 85-2 47 119 55 194h-31v-121c0-29-5-49-35-48" id="E"/><path d="M115-194c53 0 69 39 70 98 0 66-23 100-70 100C84 3 66-7 56-30L54 0H23l1-261h32v101c10-23 28-34 59-34zm-8 174c40 0 45-34 45-75 0-40-5-75-45-74-42 0-51 32-51 76 0 43 10 73 51 73" id="F"/><path d="M85-194c31 0 48 13 60 33l-1-100h32l1 261h-30c-2-10 0-23-3-31C134-8 116 4 85 4 32 4 16-35 15-94c0-66 23-100 70-100zm9 24c-40 0-46 34-46 75 0 40 6 74 45 74 42 0 51-32 51-76 0-42-9-74-50-73" id="G"/><g id="b"><use transform="matrix(0.05,0,0,0.05,0,0)" xlink:href="#D"/><use transform="matrix(0.05,0,0,0.05,10,0)" xlink:href="#x"/><use transform="matrix(0.05,0,0,0.05,20,0)" xlink:href="#E"/><use transform="matrix(0.05,0,0,0.05,34.95,0)" xlink:href="#F"/><use transform="matrix(0.05,0,0,0.05,44.95,0)" xlink:href="#G"/><use transform="matrix(0.05,0,0,0.05,54.95,0)" xlink:href="#x"/></g><path d="M101-234c-31-9-42 10-38 44h38v23H63V0H32v-167H5v-23h27c-7-52 17-82 69-68v24" id="H"/><path d="M84 4C-5 8 30-112 23-190h32v120c0 31 7 50 39 49 72-2 45-101 50-169h31l1 190h-30c-1-10 1-25-2-33-11 22-28 36-60 37" id="I"/><path d="M96-169c-40 0-48 33-48 73s9 75 48 75c24 0 41-14 43-38l32 2c-6 37-31 61-74 61-59 0-76-41-82-99-10-93 101-131 147-64 4 7 5 14 7 22l-32 3c-4-21-16-35-41-35" id="J"/><path d="M59-47c-2 24 18 29 38 22v24C64 9 27 4 27-40v-127H5v-23h24l9-43h21v43h35v23H59v120" id="K"/><path d="M100-194c62-1 85 37 85 99 1 63-27 99-86 99S16-35 15-95c0-66 28-99 85-99zM99-20c44 1 53-31 53-75 0-43-8-75-51-75s-53 32-53 75 10 74 51 75" id="L"/><g id="c"><use transform="matrix(0.05,0,0,0.05,0,0)" xlink:href="#H"/><use transform="matrix(0.05,0,0,0.05,5,0)" xlink:href="#I"/><use transform="matrix(0.05,0,0,0.05,15,0)" xlink:href="#C"/><use transform="matrix(0.05,0,0,0.05,25,0)" xlink:href="#J"/><use transform="matrix(0.05,0,0,0.05,34,0)" xlink:href="#K"/><use transform="matrix(0.05,0,0,0.05,39,0)" xlink:href="#B"/><use transform="matrix(0.05,0,0,0.05,42.95,0)" xlink:href="#L"/><use transform="matrix(0.05,0,0,0.05,52.95,0)" xlink:href="#C"/></g><path d="M205 0l-28-72H64L36 0H1l101-248h38L239 0h-34zm-38-99l-47-123c-12 45-31 82-46 123h93" id="M"/><path d="M9 0v-24l116-142H16v-24h144v24L44-24h123V0H9" id="N"/><g id="d"><use transform="matrix(0.05,0,0,0.05,0,0)" xlink:href="#M"/><use transform="matrix(0.05,0,0,0.05,12,0)" xlink:href="#E"/><use transform="matrix(0.05,0,0,0.05,26.950000000000003,0)" xlink:href="#x"/><use transform="matrix(0.05,0,0,0.05,36.95,0)" xlink:href="#N"/><use transform="matrix(0.05,0,0,0.05,45.95,0)" xlink:href="#L"/><use transform="matrix(0.05,0,0,0.05,55.95,0)" xlink:href="#C"/></g><path d="M185-189c-5-48-123-54-124 2 14 75 158 14 163 119 3 78-121 87-175 55-17-10-28-26-33-46l33-7c5 56 141 63 141-1 0-78-155-14-162-118-5-82 145-84 179-34 5 7 8 16 11 25" id="O"/><path d="M126-127c33 6 58 20 58 59 0 88-139 92-164 29-3-8-5-16-6-25l32-3c6 27 21 44 54 44 32 0 52-15 52-46 0-38-36-46-79-43v-28c39 1 72-4 72-42 0-27-17-43-46-43-28 0-47 15-49 41l-32-3c6-42 35-63 81-64 48-1 79 21 79 65 0 36-21 52-52 59" id="P"/><g id="e"><use transform="matrix(0.05,0,0,0.05,0,0)" xlink:href="#O"/><use transform="matrix(0.05,0,0,0.05,12,0)" xlink:href="#P"/></g><g id="f"><use transform="matrix(0.05,0,0,0.05,0,0)" xlink:href="#M"/><use transform="matrix(0.05,0,0,0.05,12,0)" xlink:href="#E"/><use transform="matrix(0.05,0,0,0.05,26.950000000000003,0)" xlink:href="#x"/><use transform="matrix(0.05,0,0,0.05,36.95,0)" xlink:href="#N"/><use transform="matrix(0.05,0,0,0.05,45.95,0)" xlink:href="#L"/><use transform="matrix(0.05,0,0,0.05,55.95,0)" xlink:href="#C"/></g><path d="M233-177c-1 41-23 64-60 70L243 0h-38l-65-103H63V0H30v-248c88 3 205-21 203 71zM63-129c60-2 137 13 137-47 0-61-80-42-137-45v92" id="Q"/><path d="M143 0L79-87 56-68V0H24v-261h32v163l83-92h37l-77 82L181 0h-38" id="R"/><path d="M177-190C167-65 218 103 67 71c-23-6-38-20-44-43l32-5c15 47 100 32 89-28v-30C133-14 115 1 83 1 29 1 15-40 15-95c0-56 16-97 71-98 29-1 48 16 59 35 1-10 0-23 2-32h30zM94-22c36 0 50-32 50-73 0-42-14-75-50-75-39 0-46 34-46 75s6 73 46 73" id="S"/><g id="g"><use transform="matrix(0.05,0,0,0.05,0,0)" xlink:href="#Q"/><use transform="matrix(0.05,0,0,0.05,12.950000000000001,0)" xlink:href="#z"/><use transform="matrix(0.05,0,0,0.05,22.950000000000003,0)" xlink:href="#R"/><use transform="matrix(0.05,0,0,0.05,31.950000000000003,0)" xlink:href="#L"/><use transform="matrix(0.05,0,0,0.05,41.95,0)" xlink:href="#S"/><use transform="matrix(0.05,0,0,0.05,51.95,0)" xlink:href="#C"/><use transform="matrix(0.05,0,0,0.05,61.95,0)" xlink:href="#B"/><use transform="matrix(0.05,0,0,0.05,65.9,0)" xlink:href="#K"/><use transform="matrix(0.05,0,0,0.05,70.9,0)" xlink:href="#B"/><use transform="matrix(0.05,0,0,0.05,74.85000000000001,0)" xlink:href="#L"/><use transform="matrix(0.05,0,0,0.05,84.85000000000001,0)" xlink:href="#C"/></g><g id="h"><use transform="matrix(0.05,0,0,0.05,0,0)" xlink:href="#z"/><use transform="matrix(0.05,0,0,0.05,10,0)" xlink:href="#E"/><use transform="matrix(0.05,0,0,0.05,24.950000000000003,0)" xlink:href="#x"/><use transform="matrix(0.05,0,0,0.05,34.95,0)" xlink:href="#B"/><use transform="matrix(0.05,0,0,0.05,38.900000000000006,0)" xlink:href="#y"/></g><g id="i"><use transform="matrix(0.05,0,0,0.05,0,0)" xlink:href="#C"/><use transform="matrix(0.05,0,0,0.05,10,0)" xlink:href="#L"/><use transform="matrix(0.05,0,0,0.05,20,0)" xlink:href="#K"/><use transform="matrix(0.05,0,0,0.05,25,0)" xlink:href="#B"/><use transform="matrix(0.05,0,0,0.05,28.950000000000003,0)" xlink:href="#H"/><use transform="matrix(0.05,0,0,0.05,33.95,0)" xlink:href="#B"/><use transform="matrix(0.05,0,0,0.05,37.900000000000006,0)" xlink:href="#J"/><use transform="matrix(0.05,0,0,0.05,46.900000000000006,0)" xlink:href="#x"/><use transform="matrix(0.05,0,0,0.05,56.900000000000006,0)" xlink:href="#K"/><use transform="matrix(0.05,0,0,0.05,61.900000000000006,0)" xlink:href="#B"/><use transform="matrix(0.05,0,0,0.05,65.85000000000001,0)" xlink:href="#L"/><use transform="matrix(0.05,0,0,0.05,75.85000000000001,0)" xlink:href="#C"/></g><path d="M232-93c-1 65-40 97-104 97C67 4 28-28 28-90v-158h33c8 89-33 224 67 224 102 0 64-133 71-224h33v155" id="T"/><path d="M135-143c-3-34-86-38-87 0 15 53 115 12 119 90S17 21 10-45l28-5c4 36 97 45 98 0-10-56-113-15-118-90-4-57 82-63 122-42 12 7 21 19 24 35" id="U"/><g id="j"><use transform="matrix(0.05,0,0,0.05,0,0)" xlink:href="#T"/><use transform="matrix(0.05,0,0,0.05,12.950000000000001,0)" xlink:href="#U"/><use transform="matrix(0.05,0,0,0.05,21.950000000000003,0)" xlink:href="#z"/><use transform="matrix(0.05,0,0,0.05,31.950000000000003,0)" xlink:href="#A"/><use transform="matrix(0.05,0,0,0.05,37.900000000000006,0)" xlink:href="#U"/></g><path d="M33 0v-248h34V0H33" id="V"/><g id="k"><use transform="matrix(0.05,0,0,0.05,0,0)" xlink:href="#V"/><use transform="matrix(0.05,0,0,0.05,5,0)" xlink:href="#E"/><use transform="matrix(0.05,0,0,0.05,19.950000000000003,0)" xlink:href="#x"/><use transform="matrix(0.05,0,0,0.05,29.950000000000003,0)" xlink:href="#S"/><use transform="matrix(0.05,0,0,0.05,39.95,0)" xlink:href="#z"/></g><path d="M115-194c55 1 70 41 70 98S169 2 115 4C84 4 66-9 55-30l1 105H24l-1-265h31l2 30c10-21 28-34 59-34zm-8 174c40 0 45-34 45-75s-6-73-45-74c-42 0-51 32-51 76 0 43 10 73 51 73" id="W"/><g id="l"><use transform="matrix(0.05,0,0,0.05,0,0)" xlink:href="#T"/><use transform="matrix(0.05,0,0,0.05,12.950000000000001,0)" xlink:href="#W"/><use transform="matrix(0.05,0,0,0.05,22.950000000000003,0)" xlink:href="#y"/><use transform="matrix(0.05,0,0,0.05,26.900000000000002,0)" xlink:href="#L"/><use transform="matrix(0.05,0,0,0.05,36.900000000000006,0)" xlink:href="#x"/><use transform="matrix(0.05,0,0,0.05,46.900000000000006,0)" xlink:href="#G"/><use transform="matrix(0.05,0,0,0.05,56.900000000000006,0)" xlink:href="#U"/></g><g id="m"><use transform="matrix(0.05,0,0,0.05,0,0)" xlink:href="#O"/><use transform="matrix(0.05,0,0,0.05,12,0)" xlink:href="#P"/></g><path d="M140-251c81 0 123 46 123 126C263-46 219 4 140 4 59 4 17-45 17-125s42-126 123-126zm0 227c63 0 89-41 89-101s-29-99-89-99c-61 0-89 39-89 99S79-25 140-24" id="X"/><path d="M24-231v-30h32v30H24zM-9 49c24 4 33-6 33-30v-209h32V24c2 40-23 58-65 49V49" id="Y"/><g id="n"><use transform="matrix(0.05,0,0,0.05,0,0)" xlink:href="#X"/><use transform="matrix(0.05,0,0,0.05,14,0)" xlink:href="#F"/><use transform="matrix(0.05,0,0,0.05,24,0)" xlink:href="#Y"/><use transform="matrix(0.05,0,0,0.05,27.950000000000003,0)" xlink:href="#z"/><use transform="matrix(0.05,0,0,0.05,37.95,0)" xlink:href="#J"/><use transform="matrix(0.05,0,0,0.05,46.95,0)" xlink:href="#K"/></g><path d="M212-179c-10-28-35-45-73-45-59 0-87 40-87 99 0 60 29 101 89 101 43 0 62-24 78-52l27 14C228-24 195 4 139 4 59 4 22-46 18-125c-6-104 99-153 187-111 19 9 31 26 39 46" id="Z"/><g id="o"><use transform="matrix(0.05,0,0,0.05,0,0)" xlink:href="#Z"/><use transform="matrix(0.05,0,0,0.05,12.950000000000001,0)" xlink:href="#A"/><use transform="matrix(0.05,0,0,0.05,18.900000000000002,0)" xlink:href="#z"/><use transform="matrix(0.05,0,0,0.05,28.900000000000002,0)" xlink:href="#x"/><use transform="matrix(0.05,0,0,0.05,38.900000000000006,0)" xlink:href="#K"/><use transform="matrix(0.05,0,0,0.05,43.900000000000006,0)" xlink:href="#B"/><use transform="matrix(0.05,0,0,0.05,47.85000000000001,0)" xlink:href="#L"/><use transform="matrix(0.05,0,0,0.05,57.85,0)" xlink:href="#C"/></g><path d="M30 0v-248h187v28H63v79h144v27H63v87h162V0H30" id="aa"/><path d="M108 0H70L1-190h34L89-25l56-165h34" id="ab"/><g id="p"><use transform="matrix(0.05,0,0,0.05,0,0)" xlink:href="#aa"/><use transform="matrix(0.05,0,0,0.05,12,0)" xlink:href="#ab"/><use transform="matrix(0.05,0,0,0.05,21,0)" xlink:href="#z"/><use transform="matrix(0.05,0,0,0.05,31,0)" xlink:href="#C"/><use transform="matrix(0.05,0,0,0.05,41,0)" xlink:href="#K"/><use transform="matrix(0.05,0,0,0.05,46,0)" xlink:href="#U"/></g><g id="q"><use transform="matrix(0.05,0,0,0.05,0,0)" xlink:href="#M"/><use transform="matrix(0.05,0,0,0.05,12,0)" xlink:href="#G"/><use transform="matrix(0.05,0,0,0.05,22,0)" xlink:href="#E"/><use transform="matrix(0.05,0,0,0.05,36.95,0)" xlink:href="#B"/><use transform="matrix(0.05,0,0,0.05,40.900000000000006,0)" xlink:href="#C"/><use transform="matrix(0.05,0,0,0.05,50.900000000000006,0)" xlink:href="#B"/><use transform="matrix(0.05,0,0,0.05,54.85,0)" xlink:href="#U"/><use transform="matrix(0.05,0,0,0.05,63.85,0)" xlink:href="#K"/><use transform="matrix(0.05,0,0,0.05,68.85000000000001,0)" xlink:href="#A"/><use transform="matrix(0.05,0,0,0.05,74.80000000000001,0)" xlink:href="#x"/><use transform="matrix(0.05,0,0,0.05,84.80000000000001,0)" xlink:href="#K"/><use transform="matrix(0.05,0,0,0.05,89.80000000000001,0)" xlink:href="#L"/><use transform="matrix(0.05,0,0,0.05,99.80000000000001,0)" xlink:href="#A"/></g><g id="r"><use transform="matrix(0.05,0,0,0.05,0,0)" xlink:href="#D"/><use transform="matrix(0.05,0,0,0.05,10,0)" xlink:href="#x"/><use transform="matrix(0.05,0,0,0.05,20,0)" xlink:href="#F"/><use transform="matrix(0.05,0,0,0.05,30,0)" xlink:href="#z"/><use transform="matrix(0.05,0,0,0.05,40,0)" xlink:href="#y"/></g><path d="M30-248c118-7 216 8 213 122C240-48 200 0 122 0H30v-248zM63-27c89 8 146-16 146-99s-60-101-146-95v194" id="ac"/><g id="s"><use transform="matrix(0.05,0,0,0.05,0,0)" xlink:href="#ac"/><use transform="matrix(0.05,0,0,0.05,12.950000000000001,0)" xlink:href="#z"/><use transform="matrix(0.05,0,0,0.05,22.950000000000003,0)" xlink:href="#K"/><use transform="matrix(0.05,0,0,0.05,27.950000000000003,0)" xlink:href="#z"/><use transform="matrix(0.05,0,0,0.05,37.95,0)" xlink:href="#J"/><use transform="matrix(0.05,0,0,0.05,46.95,0)" xlink:href="#K"/></g><path d="M0 4l72-265h28L28 4H0" id="ad"/><use transform="matrix(0.05,0,0,0.05,0,0)" xlink:href="#ad" id="t"/><path d="M127-220V0H93v-220H8v-28h204v28h-85" id="ae"/><path d="M141 0L90-78 38 0H4l68-98-65-92h35l48 74 47-74h35l-64 92 68 98h-35" id="af"/><g id="u"><use transform="matrix(0.05,0,0,0.05,0,0)" xlink:href="#ae"/><use transform="matrix(0.05,0,0,0.05,8.950000000000001,0)" xlink:href="#z"/><use transform="matrix(0.05,0,0,0.05,18.950000000000003,0)" xlink:href="#af"/><use transform="matrix(0.05,0,0,0.05,27.950000000000003,0)" xlink:href="#K"/></g><g id="v"><use transform="matrix(0.05,0,0,0.05,0,0)" xlink:href="#ac"/><use transform="matrix(0.05,0,0,0.05,12.950000000000001,0)" xlink:href="#z"/><use transform="matrix(0.05,0,0,0.05,22.950000000000003,0)" xlink:href="#K"/><use transform="matrix(0.05,0,0,0.05,27.950000000000003,0)" xlink:href="#z"/><use transform="matrix(0.05,0,0,0.05,37.95,0)" xlink:href="#J"/><use transform="matrix(0.05,0,0,0.05,46.95,0)" xlink:href="#K"/></g></defs></g></svg>